<?xml version="1.0" encoding="UTF-8" standalone="no"?> <svg width="64" height="64" viewBox="0 0 64 64" fill="none" xmlns="http://www.w3.org/2000/svg">
<path d="M54 14.6801V21.0001C54 21.2653 53.8946 21.5196 53.7071 21.7072C53.5196 21.8947 53.2652 22.0001 53 22.0001H46.93C49.2063 25.3843 50.2637 29.4423 49.9284 33.507C49.593 37.5718 47.8848 41.4016 45.0846 44.367C42.2844 47.3324 38.5587 49.2571 34.5198 49.8246C30.4809 50.3922 26.369 49.5689 22.86 47.4901C22.7287 47.4116 22.6172 47.3041 22.534 47.1758C22.4508 47.0475 22.3981 46.9019 22.38 46.7501C22.3624 46.5996 22.3784 46.4471 22.4268 46.3036C22.4752 46.1601 22.5548 46.0291 22.66 45.9201L24.59 44.0001H12V56.5901L14 54.5801C14.1707 54.4095 14.3974 54.3065 14.6382 54.2899C14.8789 54.2734 15.1175 54.3445 15.31 54.4901C20.7579 58.5397 27.4915 60.4724 34.2578 59.9284C41.0242 59.3844 47.3625 56.4009 52.0935 51.533C56.8245 46.665 59.626 40.2441 59.9767 33.465C60.3274 26.6859 58.2034 20.0102 54 14.6801V14.6801Z" fill="black"/>
<path d="M9.99995 49.32V43C9.99995 42.7348 10.1053 42.4804 10.2928 42.2929C10.4804 42.1054 10.7347 42 10.9999 42H17.0699C14.7936 38.6157 13.7362 34.5578 14.0716 30.493C14.407 26.4282 16.1151 22.5984 18.9153 19.633C21.7155 16.6676 25.4412 14.743 29.4802 14.1754C33.5191 13.6079 37.6309 14.4312 41.1399 16.51C41.2712 16.5884 41.3827 16.6959 41.4659 16.8242C41.5492 16.9525 41.6018 17.0982 41.6199 17.25C41.6376 17.4004 41.6216 17.5529 41.5732 17.6964C41.5248 17.84 41.4451 17.971 41.34 18.08L39.41 20H52V7.41L50 9.42C49.8292 9.59054 49.6026 9.69359 49.3618 9.71013C49.121 9.72667 48.8824 9.65559 48.6899 9.51C43.242 5.46034 36.5085 3.5277 29.7421 4.07166C22.9758 4.61562 16.6374 7.59913 11.9064 12.4671C7.17543 17.335 4.37396 23.7559 4.02326 30.535C3.67256 37.3142 5.79652 43.9898 9.99995 49.32V49.32Z" fill="black"/>
</svg>
